# Blender 3.1.0
# www.blender.org
mtllib cursor.mtl
o Cursor
v 0.000000 -0.950000 -0.000000
v -0.000000 -1.100000 0.000000
v -0.050000 -0.950000 -0.000000
v -0.050000 -0.850000 -0.000000
v -0.100000 -0.850000 -0.000000
v -0.150000 -0.750000 -0.000000
v -0.150000 -0.650000 0.000000
v -0.200000 -0.650000 0.000000
v -0.250000 -0.600000 0.000000
v -0.250000 -0.500000 -0.000000
v -0.200000 -0.450000 -0.000000
v -0.100000 -0.450000 -0.000000
v -0.050000 -0.500000 -0.000000
v -0.050000 -0.050000 -0.000000
v -0.000000 0.000000 0.000000
v 0.100000 0.000000 0.000000
v 0.100000 -0.050000 -0.000000
v 0.150000 -0.050000 -0.000000
v 0.150000 -0.250000 -0.000000
v 0.250000 -0.250000 -0.000000
v 0.250000 -0.300000 0.000000
v 0.400000 -0.300000 0.000000
v 0.500000 -0.350000 -0.000000
v 0.500000 -0.400000 -0.000000
v 0.550000 -0.400000 -0.000000
v 0.550000 -0.450000 -0.000000
v 0.600000 -0.450000 -0.000000
v 0.600000 -0.800000 -0.000000
v 0.550000 -0.800000 -0.000000
v 0.550000 -0.950000 -0.000000
v 0.500000 -0.950000 -0.000000
v 0.500000 -1.100000 0.000000
v -0.150000 -0.600000 0.000000
v -0.100000 -0.550000 0.000000
v -0.050000 -0.550000 0.000000
v -0.050000 -0.700000 -0.000000
v 0.150000 -0.300000 0.000000
v 0.300000 -0.500000 -0.000000
v 0.450000 -0.550000 0.000000
v 0.500000 -0.450000 -0.000000
v 0.450000 -0.950000 -0.000000
v 0.050000 -0.950000 -0.000000
v -0.050000 -0.950000 0.050000
v -0.000000 -1.100000 0.050000
v -0.100000 -0.850000 0.050000
v -0.150000 -0.750000 0.050000
v -0.150000 -0.650000 0.050000
v -0.200000 -0.650000 0.050000
v -0.200000 -0.600000 0.050000
v -0.250000 -0.600000 0.050000
v -0.250000 -0.500000 0.050000
v -0.200000 -0.450000 0.050000
v -0.100000 -0.450000 0.050000
v -0.050000 -0.500000 0.050000
v -0.050000 -0.050000 0.050000
v -0.000000 -0.050000 0.050000
v -0.000000 0.000000 0.050000
v 0.100000 0.000000 0.050000
v 0.100000 -0.050000 0.050000
v 0.150000 -0.050000 0.050000
v 0.150000 -0.250000 0.050000
v 0.250000 -0.250000 0.050000
v 0.250000 -0.300000 0.050000
v 0.400000 -0.300000 0.050000
v 0.400000 -0.350000 0.050000
v 0.500000 -0.350000 0.050000
v 0.500000 -0.400000 0.050000
v 0.550000 -0.400000 0.050000
v 0.550000 -0.450000 0.050000
v 0.600000 -0.450000 0.050000
v 0.600000 -0.800000 0.050000
v 0.550000 -0.950000 0.050000
v 0.500000 -0.950000 0.050000
v 0.500000 -1.100000 0.050000
v 0.000000 -0.850000 0.050000
v -0.150000 -0.600000 0.050000
v -0.100000 -0.550000 0.050000
v -0.050000 -0.550000 0.050000
v -0.050000 -0.700000 0.050000
v 0.100000 -0.500000 0.050000
v 0.150000 -0.500000 0.050000
v 0.150000 -0.300000 0.050000
v 0.300000 -0.500000 0.050000
v 0.400000 -0.550000 0.050000
v 0.500000 -0.800000 0.050000
v 0.450000 -0.950000 0.050000
v 0.050000 -1.050000 0.050000
v -0.100000 -0.750000 -0.000000
v -0.200000 -0.600000 0.000000
v -0.200000 -0.500000 -0.000000
v -0.100000 -0.500000 -0.000000
v -0.000000 -0.050000 -0.000000
v 0.400000 -0.350000 -0.000000
v 0.000000 -0.850000 -0.000000
v -0.050000 -0.750000 -0.000000
v -0.100000 -0.650000 0.000000
v -0.000000 -0.700000 -0.000000
v 0.100000 -0.500000 -0.000000
v 0.150000 -0.500000 -0.000000
v 0.250000 -0.500000 -0.000000
v 0.300000 -0.350000 -0.000000
v 0.400000 -0.550000 0.000000
v 0.450000 -0.400000 -0.000000
v 0.500000 -0.800000 -0.000000
v 0.450000 -1.050000 0.000000
v 0.050000 -1.050000 0.000000
v 0.000000 -0.950000 0.050000
v -0.050000 -0.850000 0.050000
v -0.100000 -0.750000 0.050000
v -0.200000 -0.500000 0.050000
v -0.100000 -0.500000 0.050000
v 0.550000 -0.800000 0.050000
v -0.050000 -0.750000 0.050000
v -0.100000 -0.650000 0.050000
v -0.000000 -0.700000 0.050000
v 0.250000 -0.500000 0.050000
v 0.300000 -0.350000 0.050000
v 0.450000 -0.550000 0.050000
v 0.450000 -0.400000 0.050000
v 0.500000 -0.450000 0.050000
v 0.450000 -1.050000 0.050000
v 0.050000 -0.950000 0.050000
vn -0.0000 -0.0000 -1.0000
vn -0.0000 -0.0000 1.0000
vn -1.0000 -0.0000 -0.0000
vn 1.0000 -0.0000 -0.0000
vn -0.0000 1.0000 -0.0000
vn -0.0000 -1.0000 -0.0000
vt -0.705882 0.136364
vt -0.705882 0.000000
vt -0.764706 0.136364
vt -0.764706 0.227273
vt -0.823529 0.227273
vt -0.882353 0.318182
vt -0.882353 0.409091
vt -0.941176 0.409091
vt -1.000000 0.454546
vt -1.000000 0.545455
vt -0.941176 0.590909
vt -0.823529 0.590909
vt -0.764706 0.545455
vt -0.764706 0.954546
vt -0.705882 1.000000
vt -0.588235 1.000000
vt -0.588235 0.954546
vt -0.529412 0.954546
vt -0.529412 0.772727
vt -0.411765 0.772727
vt -0.411765 0.727273
vt -0.235294 0.727273
vt -0.117647 0.681818
vt -0.117647 0.636364
vt -0.058823 0.636364
vt -0.058823 0.590909
vt -0.000000 0.590909
vt -0.000000 0.272727
vt -0.058823 0.272727
vt -0.058823 0.136364
vt -0.117647 0.136364
vt -0.117647 0.000000
vt -0.882353 0.454546
vt -0.823529 0.500000
vt -0.764706 0.500000
vt -0.764706 0.363636
vt -0.529412 0.727273
vt -0.352941 0.545455
vt -0.176471 0.500000
vt -0.117647 0.590909
vt -0.176471 0.136364
vt -0.647059 0.136364
vt -0.764706 0.136364
vt -0.705882 0.000000
vt -0.823529 0.227273
vt -0.882353 0.318182
vt -0.882353 0.409091
vt -0.941176 0.409091
vt -0.941176 0.454546
vt -1.000000 0.454546
vt -1.000000 0.545455
vt -0.941176 0.590909
vt -0.823529 0.590909
vt -0.764706 0.545455
vt -0.764706 0.954546
vt -0.705882 0.954546
vt -0.705882 1.000000
vt -0.588235 1.000000
vt -0.588235 0.954546
vt -0.529412 0.954546
vt -0.529412 0.772727
vt -0.411765 0.772727
vt -0.411765 0.727273
vt -0.235294 0.727273
vt -0.235294 0.681818
vt -0.117647 0.681818
vt -0.117647 0.636364
vt -0.058823 0.636364
vt -0.058823 0.590909
vt -0.000000 0.590909
vt -0.000000 0.272727
vt -0.058823 0.136364
vt -0.117647 0.136364
vt -0.117647 0.000000
vt -0.705882 0.227273
vt -0.882353 0.454546
vt -0.823529 0.500000
vt -0.764706 0.500000
vt -0.764706 0.363636
vt -0.588235 0.545455
vt -0.529412 0.545455
vt -0.529412 0.727273
vt -0.352941 0.545455
vt -0.235294 0.500000
vt -0.117647 0.272727
vt -0.176471 0.136364
vt -0.647059 0.045455
vt -0.823529 0.318182
vt -0.941176 0.454546
vt -0.941176 0.545455
vt -0.823529 0.545455
vt -0.705882 0.954546
vt -0.235294 0.681818
vt -0.705882 0.227273
vt -0.764706 0.318182
vt -0.823529 0.409091
vt -0.705882 0.363636
vt -0.588235 0.545455
vt -0.529412 0.545455
vt -0.411765 0.545455
vt -0.352941 0.681818
vt -0.235294 0.500000
vt -0.176471 0.636364
vt -0.117647 0.272727
vt -0.176471 0.045455
vt -0.647059 0.045455
vt -0.705882 0.136364
vt -0.764706 0.227273
vt -0.823529 0.318182
vt -0.941176 0.545455
vt -0.823529 0.545455
vt -0.058823 0.272727
vt -0.764706 0.318182
vt -0.823529 0.409091
vt -0.705882 0.363636
vt -0.411765 0.545455
vt -0.352941 0.681818
vt -0.176471 0.500000
vt -0.176471 0.636364
vt -0.117647 0.590909
vt -0.176471 0.045455
vt -0.647059 0.136364
s 0
f 12/12/1 90/90/1 11/11/1
f 10/10/1 89/89/1 9/9/1
f 89/89/1 7/7/1 8/8/1
f 7/7/1 88/88/1 6/6/1
f 88/88/1 4/4/1 5/5/1
f 3/3/1 94/94/1 1/1/1
f 105/105/1 32/32/1 2/2/1
f 31/31/1 29/29/1 30/30/1
f 28/28/1 26/26/1 27/27/1
f 26/26/1 24/24/1 25/25/1
f 103/103/1 93/93/1 24/24/1
f 101/101/1 21/21/1 93/93/1
f 19/19/1 37/37/1 98/98/1
f 16/16/1 92/92/1 15/15/1
f 13/13/1 92/92/1 35/35/1
f 110/110/2 53/53/2 52/52/2
f 49/49/2 51/51/2 50/50/2
f 47/47/2 49/49/2 48/48/2
f 109/109/2 47/47/2 46/46/2
f 108/108/2 109/109/2 45/45/2
f 43/43/2 75/75/2 108/108/2
f 44/44/2 74/74/2 87/87/2
f 112/112/2 73/73/2 72/72/2
f 69/69/2 71/71/2 70/70/2
f 67/67/2 69/69/2 68/68/2
f 119/119/2 65/65/2 118/118/2
f 117/117/2 63/63/2 83/83/2
f 59/59/2 82/82/2 61/61/2
f 56/56/2 58/58/2 57/57/2
f 54/54/2 78/78/2 56/56/2
f 44/44/3 1/1/3 2/2/3
f 66/66/4 24/24/4 23/23/4
f 111/111/5 13/13/5 91/91/5
f 43/43/3 4/4/3 3/3/3
f 67/67/5 25/25/5 24/24/5
f 54/54/3 14/14/3 13/13/3
f 108/108/6 5/5/6 4/4/6
f 68/68/4 26/26/4 25/25/4
f 55/55/5 92/92/5 14/14/5
f 45/45/3 88/88/3 5/5/3
f 69/69/5 27/27/5 26/26/5
f 56/56/3 15/15/3 92/92/3
f 109/109/6 6/6/6 88/88/6
f 70/70/4 28/28/4 27/27/4
f 57/57/5 16/16/5 15/15/5
f 46/46/3 7/7/3 6/6/3
f 71/71/6 29/29/6 28/28/6
f 58/58/4 17/17/4 16/16/4
f 47/47/6 8/8/6 7/7/6
f 112/112/4 30/30/4 29/29/4
f 59/59/5 18/18/5 17/17/5
f 48/48/3 89/89/3 8/8/3
f 72/72/6 31/31/6 30/30/6
f 60/60/4 19/19/4 18/18/4
f 49/49/6 9/9/6 89/89/6
f 73/73/4 32/32/4 31/31/4
f 61/61/5 20/20/5 19/19/5
f 50/50/3 10/10/3 9/9/3
f 74/74/6 2/2/6 32/32/6
f 62/62/4 21/21/4 20/20/4
f 51/51/5 90/90/5 10/10/5
f 63/63/5 22/22/5 21/21/5
f 110/110/3 11/11/3 90/90/3
f 22/22/4 65/65/4 93/93/4
f 52/52/5 12/12/5 11/11/5
f 107/107/6 3/3/6 1/1/6
f 65/65/5 23/23/5 93/93/5
f 12/12/4 111/111/4 91/91/4
f 12/12/1 91/91/1 90/90/1
f 10/10/1 90/90/1 89/89/1
f 89/89/1 33/33/1 7/7/1
f 7/7/1 96/96/1 88/88/1
f 88/88/1 95/95/1 4/4/1
f 3/3/1 4/4/1 94/94/1
f 2/2/1 1/1/1 42/42/1
f 2/2/1 42/42/1 106/106/1
f 41/41/1 31/31/1 32/32/1
f 2/2/1 106/106/1 105/105/1
f 105/105/1 41/41/1 32/32/1
f 31/31/1 104/104/1 29/29/1
f 28/28/1 29/29/1 26/26/1
f 26/26/1 40/40/1 24/24/1
f 103/103/1 39/39/1 102/102/1
f 93/93/1 23/23/1 24/24/1
f 103/103/1 102/102/1 93/93/1
f 101/101/1 38/38/1 100/100/1
f 21/21/1 22/22/1 93/93/1
f 101/101/1 100/100/1 21/21/1
f 17/17/1 18/18/1 19/19/1
f 19/19/1 20/20/1 21/21/1
f 37/37/1 99/99/1 98/98/1
f 19/19/1 21/21/1 37/37/1
f 98/98/1 17/17/1 19/19/1
f 16/16/1 17/17/1 92/92/1
f 13/13/1 14/14/1 92/92/1
f 92/92/1 97/97/1 36/36/1
f 35/35/1 34/34/1 91/91/1
f 92/92/1 36/36/1 35/35/1
f 35/35/1 91/91/1 13/13/1
f 110/110/2 111/111/2 53/53/2
f 49/49/2 110/110/2 51/51/2
f 47/47/2 76/76/2 49/49/2
f 109/109/2 114/114/2 47/47/2
f 108/108/2 113/113/2 109/109/2
f 43/43/2 107/107/2 75/75/2
f 122/122/2 107/107/2 44/44/2
f 74/74/2 73/73/2 86/86/2
f 74/74/2 86/86/2 121/121/2
f 87/87/2 122/122/2 44/44/2
f 74/74/2 121/121/2 87/87/2
f 112/112/2 85/85/2 73/73/2
f 69/69/2 112/112/2 71/71/2
f 67/67/2 120/120/2 69/69/2
f 119/119/2 67/67/2 66/66/2
f 65/65/2 84/84/2 118/118/2
f 119/119/2 66/66/2 65/65/2
f 117/117/2 65/65/2 64/64/2
f 63/63/2 116/116/2 83/83/2
f 117/117/2 64/64/2 63/63/2
f 61/61/2 60/60/2 59/59/2
f 59/59/2 80/80/2 81/81/2
f 82/82/2 63/63/2 62/62/2
f 59/59/2 81/81/2 82/82/2
f 82/82/2 62/62/2 61/61/2
f 56/56/2 59/59/2 58/58/2
f 54/54/2 111/111/2 77/77/2
f 78/78/2 79/79/2 115/115/2
f 54/54/2 77/77/2 78/78/2
f 56/56/2 55/55/2 54/54/2
f 78/78/2 115/115/2 56/56/2
f 44/44/3 107/107/3 1/1/3
f 66/66/4 67/67/4 24/24/4
f 111/111/5 54/54/5 13/13/5
f 43/43/3 108/108/3 4/4/3
f 67/67/5 68/68/5 25/25/5
f 54/54/3 55/55/3 14/14/3
f 108/108/6 45/45/6 5/5/6
f 68/68/4 69/69/4 26/26/4
f 55/55/5 56/56/5 92/92/5
f 45/45/3 109/109/3 88/88/3
f 69/69/5 70/70/5 27/27/5
f 56/56/3 57/57/3 15/15/3
f 109/109/6 46/46/6 6/6/6
f 70/70/4 71/71/4 28/28/4
f 57/57/5 58/58/5 16/16/5
f 46/46/3 47/47/3 7/7/3
f 71/71/6 112/112/6 29/29/6
f 58/58/4 59/59/4 17/17/4
f 47/47/6 48/48/6 8/8/6
f 112/112/4 72/72/4 30/30/4
f 59/59/5 60/60/5 18/18/5
f 48/48/3 49/49/3 89/89/3
f 72/72/6 73/73/6 31/31/6
f 60/60/4 61/61/4 19/19/4
f 49/49/6 50/50/6 9/9/6
f 73/73/4 74/74/4 32/32/4
f 61/61/5 62/62/5 20/20/5
f 50/50/3 51/51/3 10/10/3
f 74/74/6 44/44/6 2/2/6
f 62/62/4 63/63/4 21/21/4
f 51/51/5 110/110/5 90/90/5
f 63/63/5 64/64/5 22/22/5
f 110/110/3 52/52/3 11/11/3
f 22/22/4 64/64/4 65/65/4
f 52/52/5 53/53/5 12/12/5
f 107/107/6 43/43/6 3/3/6
f 65/65/5 66/66/5 23/23/5
f 12/12/4 53/53/4 111/111/4
o Cursor.001
v -0.150000 -0.650000 0.050000
v -0.200000 -0.600000 0.050000
v -0.000000 -0.050000 0.050000
v 0.100000 -0.050000 0.050000
v 0.250000 -0.300000 0.050000
v 0.400000 -0.350000 0.050000
v 0.500000 -0.400000 0.050000
v 0.550000 -0.450000 0.050000
v 0.500000 -0.950000 0.050000
v 0.000000 -0.850000 0.050000
v -0.150000 -0.600000 0.050000
v -0.100000 -0.550000 0.050000
v -0.050000 -0.550000 0.050000
v -0.050000 -0.700000 0.050000
v 0.100000 -0.500000 0.050000
v 0.150000 -0.500000 0.050000
v 0.150000 -0.300000 0.050000
v 0.300000 -0.500000 0.050000
v 0.400000 -0.550000 0.050000
v 0.500000 -0.800000 0.050000
v 0.450000 -0.950000 0.050000
v 0.000000 -0.950000 0.050000
v -0.050000 -0.850000 0.050000
v -0.100000 -0.750000 0.050000
v -0.200000 -0.500000 0.050000
v -0.100000 -0.500000 0.050000
v 0.550000 -0.800000 0.050000
v -0.050000 -0.750000 0.050000
v -0.100000 -0.650000 0.050000
v -0.000000 -0.700000 0.050000
v 0.250000 -0.500000 0.050000
v 0.300000 -0.350000 0.050000
v 0.450000 -0.550000 0.050000
v 0.450000 -0.400000 0.050000
v 0.500000 -0.450000 0.050000
v 0.050000 -0.950000 0.050000
v 0.000000 -0.950000 -0.000000
v -0.050000 -0.850000 -0.000000
v -0.150000 -0.650000 0.000000
v 0.100000 -0.050000 -0.000000
v 0.250000 -0.300000 0.000000
v 0.500000 -0.400000 -0.000000
v 0.550000 -0.450000 -0.000000
v 0.550000 -0.800000 -0.000000
v 0.500000 -0.950000 -0.000000
v -0.150000 -0.600000 0.000000
v -0.100000 -0.550000 0.000000
v -0.050000 -0.550000 0.000000
v -0.050000 -0.700000 -0.000000
v 0.150000 -0.300000 0.000000
v 0.300000 -0.500000 -0.000000
v 0.450000 -0.550000 0.000000
v 0.500000 -0.450000 -0.000000
v 0.450000 -0.950000 -0.000000
v 0.050000 -0.950000 -0.000000
v -0.100000 -0.750000 -0.000000
v -0.200000 -0.600000 0.000000
v -0.200000 -0.500000 -0.000000
v -0.100000 -0.500000 -0.000000
v -0.000000 -0.050000 -0.000000
v 0.400000 -0.350000 -0.000000
v 0.000000 -0.850000 -0.000000
v -0.050000 -0.750000 -0.000000
v -0.100000 -0.650000 0.000000
v -0.000000 -0.700000 -0.000000
v 0.100000 -0.500000 -0.000000
v 0.150000 -0.500000 -0.000000
v 0.250000 -0.500000 -0.000000
v 0.300000 -0.350000 -0.000000
v 0.400000 -0.550000 0.000000
v 0.450000 -0.400000 -0.000000
v 0.500000 -0.800000 -0.000000
vn -0.0000 -0.0000 -1.0000
vn -0.0000 -0.0000 1.0000
vn 0.8944 0.4472 -0.0000
vn -0.0000 1.0000 -0.0000
vt 1.117647 0.409091
vt 1.058823 0.454546
vt 1.294118 0.954546
vt 1.411765 0.954546
vt 1.588235 0.727273
vt 1.764706 0.681818
vt 1.882353 0.636364
vt 1.941177 0.590909
vt 1.882353 0.136364
vt 1.294118 0.227273
vt 1.117647 0.454546
vt 1.176471 0.500000
vt 1.235294 0.500000
vt 1.235294 0.363636
vt 1.411765 0.545455
vt 1.470588 0.545455
vt 1.470588 0.727273
vt 1.647059 0.545455
vt 1.764706 0.500000
vt 1.882353 0.272727
vt 1.823529 0.136364
vt 1.294118 0.136364
vt 1.235294 0.227273
vt 1.176471 0.318182
vt 1.058823 0.545455
vt 1.176471 0.545455
vt 1.941177 0.272727
vt 1.235294 0.318182
vt 1.176471 0.409091
vt 1.294118 0.363636
vt 1.588235 0.545455
vt 1.647059 0.681818
vt 1.823529 0.500000
vt 1.823529 0.636364
vt 1.882353 0.590909
vt 1.352941 0.136364
vt 1.294118 0.136364
vt 1.235294 0.227273
vt 1.117647 0.409091
vt 1.411765 0.954546
vt 1.588235 0.727273
vt 1.882353 0.636364
vt 1.941177 0.590909
vt 1.941177 0.272727
vt 1.882353 0.136364
vt 1.117647 0.454546
vt 1.176471 0.500000
vt 1.235294 0.500000
vt 1.235294 0.363636
vt 1.470588 0.727273
vt 1.647059 0.545455
vt 1.823529 0.500000
vt 1.882353 0.590909
vt 1.823529 0.136364
vt 1.352941 0.136364
vt 1.176471 0.318182
vt 1.058823 0.454546
vt 1.058823 0.545455
vt 1.176471 0.545455
vt 1.294118 0.954546
vt 1.764706 0.681818
vt 1.294118 0.227273
vt 1.235294 0.318182
vt 1.176471 0.409091
vt 1.294118 0.363636
vt 1.411765 0.545455
vt 1.470588 0.545455
vt 1.588235 0.545455
vt 1.647059 0.681818
vt 1.764706 0.500000
vt 1.823529 0.636364
vt 1.882353 0.272727
s 0
f 186/186/7 180/180/7 171/171/7
f 136/136/8 147/147/8 151/151/8
f 175/175/7 165/165/7 166/166/7
f 194/194/7 167/167/7 176/176/7
f 175/175/7 166/166/7 194/194/7
f 193/193/7 164/164/7 175/175/7
f 174/174/7 193/193/7 175/175/7
f 175/175/7 194/194/7 176/176/7
f 177/177/7 159/159/7 184/184/7
f 174/174/7 175/175/7 176/176/7
f 191/191/7 183/183/7 192/192/7
f 192/192/7 174/174/7 176/176/7
f 176/176/7 177/177/7 184/184/7
f 184/184/7 160/160/7 185/185/7
f 185/185/7 178/178/7 186/186/7
f 186/186/7 161/161/7 168/168/7
f 168/168/7 179/179/7 180/180/7
f 180/180/7 181/181/7 169/169/7
f 169/169/7 170/170/7 171/171/7
f 187/187/7 182/182/7 162/162/7
f 180/180/7 169/169/7 171/171/7
f 187/187/7 162/162/7 188/188/7
f 187/187/7 188/188/7 189/189/7
f 189/189/7 172/172/7 163/163/7
f 189/189/7 163/163/7 190/190/7
f 187/187/7 189/189/7 190/190/7
f 173/173/7 191/191/7 192/192/7
f 187/187/7 190/190/7 173/173/7
f 187/187/7 173/173/7 192/192/7
f 192/192/7 176/176/7 184/184/7
f 184/184/9 185/185/9 186/186/9
f 187/187/7 192/192/7 184/184/7
f 171/171/7 187/187/7 184/184/7
f 186/186/7 168/168/7 180/180/7
f 171/171/7 184/184/7 186/186/7
f 149/149/8 130/130/8 157/157/8
f 157/157/8 129/129/8 156/156/8
f 157/157/8 156/156/8 155/155/8
f 142/142/8 149/149/8 157/157/8
f 143/143/8 131/131/8 142/142/8
f 132/132/8 144/144/8 158/158/8
f 158/158/8 143/143/8 142/142/8
f 142/142/8 157/157/8 155/155/8
f 141/141/8 128/128/8 154/154/8
f 142/142/8 155/155/8 141/141/8
f 132/132/8 158/158/8 142/142/8
f 150/150/8 145/145/8 132/132/8
f 151/151/8 146/146/8 150/150/8
f 133/133/8 123/123/8 151/151/8
f 147/147/8 124/124/8 133/133/8
f 134/134/8 148/148/8 147/147/8
f 136/136/8 135/135/8 134/134/8
f 126/126/8 125/125/8 152/152/8
f 136/136/8 134/134/8 147/147/8
f 137/137/8 126/126/8 152/152/8
f 138/138/8 137/137/8 152/152/8
f 127/127/8 139/139/8 138/138/8
f 153/153/8 127/127/8 138/138/8
f 153/153/8 138/138/8 152/152/8
f 141/141/8 154/154/8 140/140/8
f 140/140/8 153/153/8 152/152/8
f 141/141/8 140/140/8 152/152/8
f 132/132/8 142/142/8 141/141/8
f 151/151/10 150/150/10 132/132/10
f 132/132/8 141/141/8 152/152/8
f 132/132/8 152/152/8 136/136/8
f 147/147/8 133/133/8 151/151/8
f 151/151/8 132/132/8 136/136/8
o Cursor.002
v 0.450000 -0.950000 0.050000
v 0.050000 -1.050000 0.050000
v 0.450000 -1.050000 0.050000
v 0.050000 -0.950000 0.050000
v 0.450000 -0.950000 -0.000000
v 0.050000 -0.950000 -0.000000
v 0.450000 -1.050000 0.000000
v 0.050000 -1.050000 0.000000
vn -0.0000 -0.0000 1.0000
vn -0.0000 -0.0000 -1.0000
vt 1.670961 1.297853
vt 1.200373 1.206944
vt 1.670961 1.206944
vt 1.200373 1.297853
vt 1.670961 1.297853
vt 1.200373 1.297853
vt 1.670961 1.206944
vt 1.200373 1.206944
s 0
f 198/198/11 197/197/11 195/195/11
f 199/199/12 202/202/12 200/200/12
f 198/198/11 196/196/11 197/197/11
f 199/199/12 201/201/12 202/202/12
